<?xml version="1.0" standalone="no"?>
<svg viewBox="0 0 200 200" xmlns="http://www.w3.org/2000/svg">
  <path fill="#FF0066" d="M35.9,-54.5C48.8,-47.7,63,-41.5,68.5,-30.9C74.1,-20.3,70.9,-5.3,66.7,8.1C62.5,21.5,57.3,33.3,50.6,47.4C43.9,61.5,35.8,77.8,23.4,82.8C11,87.9,-5.5,81.6,-22.1,76.3C-38.6,70.9,-55,66.4,-60.1,55.1C-65.2,43.8,-58.9,25.7,-61.4,8.8C-64,-8.2,-75.4,-23.9,-73.4,-35.6C-71.3,-47.4,-55.9,-55.1,-41.4,-61.2C-26.9,-67.3,-13.5,-71.8,-1,-70.3C11.5,-68.8,23.1,-61.3,35.9,-54.5Z" transform="translate(100 100)" />
</svg>
